<svg width="1000" height="400" xmlns="http://www.w3.org/2000/svg" version="1.1" xmlns:xlink="http://www.w3.org/1999/xlink">

    <rect width="1000" height="400" fill="white" />
    <polyline
        fill="none"
        stroke="black"
        points=" 0,200.0 10,219.02993768453598 20,231.6517561674118 30,241.58755242824554 40,250.40749311447144 50,257.79778957366943 60,263.96549344062805 70,269.8478162288666 80,275.1113831996918 90,279.2152523994446 100,283.6983859539032 110,286.33599281311035 120,289.82468247413635 130,291.7042553424835 140,294.89516019821167 150,297.3033547401428 160,299.9500036239624 170,299.513179063797 180,301.48383378982544 190,303.58718633651733 200,303.86033058166504 210,302.3669123649597 220,303.9867162704468 230,303.24872732162476 240,304.5030951499939 250,304.01960611343384 260,302.58474349975586 270,304.0178656578064 280,303.28049659729004 290,304.50384616851807 300,303.18537950515747 310,302.12217569351196 320,302.51821279525757 330,297.7349877357483 340,295.8262622356415 350,295.74686884880066 360,295.22289633750916 370,292.83372163772583 380,294.33319568634033 390,293.4652864933014 400,290.33840894699097 410,288.49543929100037 420,283.07902812957764 430,278.74083518981934 440,281.5210223197937 450,281.4184844493866 460,276.2681841850281 470,276.1076748371124 480,274.44955110549927 490,273.4420657157898 500,270.27450799942017 510,267.991441488266 520,263.9690935611725 530,264.3832325935364 540,263.7803077697754 550,259.6363663673401 560,259.74684953689575 570,261.1435294151306 580,258.96173119544983 590,254.78312969207764 600,254.33751940727234 610,250.31867027282715 620,249.98314082622528 630,250.30248761177063 640,248.86668622493744 650,243.52597296237946 660,237.92332410812378 670,235.2025330066681 680,232.86598920822144 690,234.65230762958527 700,231.20291233062744 710,231.72983527183533 720,230.25642335414886 730,228.02807688713074 740,224.36408549547195 750,225.98039209842682 760,227.79957354068756 770,227.6981920003891 780,226.23471319675446 790,224.81736540794373 800,220.69847136735916 810,219.20119673013687 820,217.65385568141937 830,215.12978374958038 840,207.70404785871506 850,202.06887144595385 860,200.58670211583376 870,203.81828024983406 880,207.19267651438713 890,210.66380068659782 900,209.42380726337433 910,205.9668205678463 920,201.1787955649197 930,200.1744153094478 940,203.37753370404243 950,205.0729814916849 960,202.19729468226433 970,204.2251843959093 980,202.92250961065292 990,199.4941296055913 " />

</svg>
