<svg width="1000" height="400" xmlns="http://www.w3.org/2000/svg" version="1.1" xmlns:xlink="http://www.w3.org/1999/xlink">

    <rect width="1000" height="400" fill="white" />
    <polyline
        fill="none"
        stroke="black"
        points="10,87 20,372 30,6 40,72 50,170 60,395 70,47 80,16 90,393 100,387 110,370 120,18 130,32 140,205 150,20 160,229 170,217 180,41 190,113 200,378 210,239 220,374 230,75 240,24 250,285 260,106 270,314 280,221 290,100 300,25 310,149 320,240 330,117 340,86 350,226 360,12 370,79 380,274 390,302 400,38 410,389 420,153 430,97 440,69 450,82 460,398 470,97 480,104 490,103 500,43 510,87 520,250 530,366 540,121 550,201 560,276 570,90 580,121 590,180 600,65 610,296 620,292 630,378 640,244 650,255 660,87 670,176 680,155 690,282 700,329 710,137 720,37 730,223 740,42 750,116 760,82 770,96 780,184 790,27 800,160 810,340 820,72 830,192 840,275 850,164 860,118 870,200 880,197 890,391 900,303 910,388 920,284 930,227 940,118 950,9 960,249 970,369 980,223 990,243 1000,239"
    />

</svg>
