<?xml version="1.0" encoding="UTF-8" standalone="no"?>
<!-- Created with Inkscape (http://www.inkscape.org/) -->

<svg
   xmlns:dc="http://purl.org/dc/elements/1.1/"
   xmlns:cc="http://creativecommons.org/ns#"
   xmlns:rdf="http://www.w3.org/1999/02/22-rdf-syntax-ns#"
   xmlns:svg="http://www.w3.org/2000/svg"
   xmlns="http://www.w3.org/2000/svg"
   xmlns:sodipodi="http://sodipodi.sourceforge.net/DTD/sodipodi-0.dtd"
   xmlns:inkscape="http://www.inkscape.org/namespaces/inkscape"
   width="15.970779mm"
   height="15.36536mm"
   viewBox="0 0 15.970779 15.365361"
   version="1.1"
   id="svg8"
   inkscape:version="0.92.4 (ca053d0, 2019-01-16)"
   sodipodi:docname="logo.svg">
  <defs
     id="defs2" />
  <sodipodi:namedview
     id="base"
     pagecolor="#ffffff"
     bordercolor="#666666"
     borderopacity="1.0"
     inkscape:pageopacity="0.0"
     inkscape:pageshadow="2"
     inkscape:zoom="5.6"
     inkscape:cx="12.176594"
     inkscape:cy="39.993112"
     inkscape:document-units="mm"
     inkscape:current-layer="layer1"
     showgrid="false"
     inkscape:window-width="1920"
     inkscape:window-height="1029"
     inkscape:window-x="0"
     inkscape:window-y="27"
     inkscape:window-maximized="1" />
  <metadata
     id="metadata5">
    <rdf:RDF>
      <cc:Work
         rdf:about="">
        <dc:format>image/svg+xml</dc:format>
        <dc:type
           rdf:resource="http://purl.org/dc/dcmitype/StillImage" />
        <dc:title></dc:title>
      </cc:Work>
    </rdf:RDF>
  </metadata>
  <g
     inkscape:label="Layer 1"
     inkscape:groupmode="layer"
     id="layer1"
     transform="translate(-17.970996,-139.08155)">
    <path
       style="font-style:normal;font-weight:normal;font-size:40px;line-height:1.25;font-family:sans-serif;letter-spacing:0px;word-spacing:0px;fill:#4a4a4a;fill-opacity:1;stroke:none;stroke-width:0.48988357"
       d="m 31.942673,139.08155 c -0.270568,0 -0.492656,0.0962 -0.666322,0.28879 -0.172409,0.19255 -0.258661,0.44049 -0.258661,0.74378 0,0.16486 0.02711,0.31899 0.08122,0.46246 0.05537,0.14346 0.139062,0.28068 0.251064,0.41155 l -0.277489,0.2699 v 0.4757 l 0.537967,-0.52667 c 0.158566,0.11704 0.319012,0.20829 0.481353,0.27372 0.16234,0.0654 0.326597,0.10573 0.492714,0.12083 v -0.35111 c -0.143464,-0.008 -0.27943,-0.0321 -0.407793,-0.0736 -0.127104,-0.0415 -0.246642,-0.0994 -0.358644,-0.17367 l 0.981597,-0.95894 c 0.118295,-0.11452 0.209542,-0.19065 0.273723,-0.2284 0.06544,-0.0365 0.130268,-0.0547 0.194449,-0.0547 0.110744,0 0.200678,0.0409 0.269892,0.1227 0.07047,0.0831 0.105763,0.19067 0.105763,0.32281 0,0.0856 -0.01574,0.17807 -0.0472,0.27749 -0.0302,0.0994 -0.07492,0.20384 -0.134069,0.31332 h 0.343582 c 0.0453,-0.10696 0.07928,-0.2127 0.101931,-0.31716 0.02265,-0.10319 0.03402,-0.20699 0.03402,-0.31144 0,-0.23156 -0.06233,-0.41717 -0.186919,-0.55686 -0.123328,-0.13969 -0.286896,-0.20951 -0.490766,-0.20951 -0.07551,0 -0.152953,0.0156 -0.232235,0.0471 -0.07802,0.0315 -0.156654,0.0774 -0.235937,0.13784 -0.124587,-0.16863 -0.257991,-0.29511 -0.400196,-0.37942 -0.140947,-0.0843 -0.291963,-0.12648 -0.453045,-0.12648 z m -6.154607,0.20004 v 5.79824 c -0.369964,-0.63787 -0.838761,-1.10991 -1.406465,-1.41608 -0.561324,-0.31255 -1.237486,-0.46882 -2.028444,-0.46882 -1.294874,0 -2.350557,0.51666 -3.167029,1.55001 -0.810094,1.03335 -1.215132,2.392 -1.215132,4.07598 0,1.68398 0.405038,3.04263 1.215132,4.07598 0.816472,1.03334 1.872155,1.55001 3.167029,1.55001 0.790958,0 1.46712,-0.15304 2.028444,-0.45921 0.567704,-0.31256 1.036501,-0.78782 1.406465,-1.42569 v 1.60747 h 1.760565 v -14.88789 z m 6.177266,0.16426 c 0.110744,0 0.216481,0.0264 0.317157,0.0793 0.101935,0.0541 0.203861,0.13849 0.305796,0.25301 l -1.025032,1.00043 c -0.08054,-0.0919 -0.140934,-0.18998 -0.181205,-0.29443 -0.03901,-0.10446 -0.0585,-0.2165 -0.0585,-0.33605 0,-0.20136 0.06102,-0.36874 0.183088,-0.50214 0.12207,-0.13339 0.274959,-0.20009 0.458693,-0.20009 z m -0.111346,2.70509 v 0.59458 l -0.7815,-0.19627 v 0.30391 l 0.7815,0.19439 v 0.55309 l -0.7815,-0.19438 v 0.30196 l 0.7815,0.19634 v 0.67391 h 0.288785 v -0.60029 l 0.630485,0.15478 v 0.66262 h 0.290733 v -0.589 l 0.783382,0.19446 v -0.30203 l -0.783382,-0.19822 v -0.55121 l 0.783382,0.19633 v -0.3058 l -0.783382,-0.19256 v -0.68145 h -0.290733 v 0.60782 l -0.630485,-0.15854 v -0.66444 z m 0.288785,0.97023 0.630485,0.15855 v 0.54933 l -0.630485,-0.15478 z m -9.359033,1.54723 c 0.931289,0 1.664814,0.36995 2.200625,1.10989 0.53581,0.73354 0.803703,1.74775 0.803703,3.04263 0,1.29487 -0.267893,2.31225 -0.803703,3.05218 -0.535811,0.73354 -1.269336,1.10034 -2.200625,1.10034 -0.931289,0 -1.664879,-0.3668 -2.200689,-1.10034 -0.529432,-0.73993 -0.794095,-1.75731 -0.794095,-3.05218 0,-1.29488 0.264663,-2.30909 0.794095,-3.04263 0.53581,-0.73994 1.2694,-1.10989 2.200689,-1.10989 z m 8.37367,0.718 c -0.04656,0.13339 -0.08116,0.26236 -0.103814,0.38695 -0.02391,0.12584 -0.0359,0.24795 -0.0359,0.36624 0,0.35237 0.0762,0.62417 0.22847,0.81545 0.152273,0.19129 0.367429,0.28697 0.645547,0.28697 0.181217,0 0.333482,-0.0516 0.45681,-0.15478 0.123329,-0.10193 0.204521,-0.24414 0.243533,-0.42662 0.04153,0.16486 0.115789,0.29195 0.222757,0.3813 0.108227,0.0894 0.240382,0.13401 0.396431,0.13401 0.224005,0 0.401438,-0.0843 0.532318,-0.25295 0.132137,-0.16863 0.198215,-0.39765 0.198215,-0.6871 0,-0.112 -0.01012,-0.23153 -0.03025,-0.35864 -0.02013,-0.12585 -0.0503,-0.26119 -0.09057,-0.40591 h -0.339816 c 0.04782,0.14346 0.08304,0.275 0.105698,0.39455 0.02265,0.11955 0.03402,0.23153 0.03402,0.33598 0,0.19129 -0.03903,0.33793 -0.117059,0.43987 -0.07677,0.10319 -0.187498,0.15478 -0.33222,0.15478 -0.140947,0 -0.249181,-0.0497 -0.324688,-0.14913 -0.07425,-0.0994 -0.111347,-0.24288 -0.111347,-0.43039 v -0.34358 h -0.313391 v 0.32845 c 0,0.20765 -0.04715,0.36941 -0.141537,0.48519 -0.09313,0.11703 -0.222782,0.17555 -0.388899,0.17555 -0.179958,0 -0.317109,-0.063 -0.411492,-0.1888 -0.09439,-0.12459 -0.141602,-0.30639 -0.141602,-0.5455 0,-0.13717 0.01574,-0.2687 0.0472,-0.39454 0.03146,-0.12585 0.07805,-0.24164 0.139718,-0.34735 z m 1.82536,2.40871 c -0.295737,0 -0.529129,0.0817 -0.700279,0.24534 -0.169891,0.16487 -0.254829,0.38827 -0.254829,0.67016 0,0.13591 0.02892,0.25989 0.0868,0.37189 0.05789,0.112 0.140954,0.2045 0.249181,0.27749 -0.344816,-0.0189 -0.602194,-0.095 -0.772085,-0.22841 -0.168633,-0.13213 -0.252947,-0.32406 -0.252947,-0.57575 0,-0.0944 0.01199,-0.19069 0.0359,-0.28885 0.02391,-0.0982 0.05851,-0.19503 0.103814,-0.29067 h -0.347347 c -0.03776,0.10571 -0.06604,0.20764 -0.08492,0.3058 -0.01888,0.0982 -0.02837,0.19509 -0.02837,0.29073 0,0.35614 0.132155,0.63925 0.396431,0.84941 0.265533,0.21142 0.620401,0.31716 1.064635,0.31716 0.475696,0 0.838186,-0.0862 1.08736,-0.2586 0.250432,-0.17115 0.375655,-0.41972 0.375655,-0.74566 0,-0.28441 -0.0875,-0.51218 -0.262426,-0.68333 -0.174925,-0.17115 -0.407133,-0.25671 -0.696578,-0.25671 z m 0,0.38318 c 0.202611,0 0.362433,0.0497 0.479469,0.14913 0.118295,0.10068 0.177504,0.23658 0.177504,0.40773 0,0.17115 -0.05921,0.30643 -0.177504,0.40585 -0.117036,0.10068 -0.276858,0.15101 -0.479469,0.15101 -0.20387,0 -0.364316,-0.0503 -0.481352,-0.15101 -0.117037,-0.0994 -0.175557,-0.2347 -0.175557,-0.40585 0,-0.17115 0.05852,-0.30705 0.175557,-0.40773 0.117036,-0.0994 0.277482,-0.14913 0.481352,-0.14913 z m -2.35956,2.13116 v 0.24353 l 0.604059,0.30956 h 0.324689 v -0.39825 h -0.324689 z m 1.968842,0.15484 v 0.39825 h 0.47947 v -0.39825 z"
       id="flowRoot3713"
       inkscape:connector-curvature="0" />
  </g>
</svg>
