<?xml version="1.0" encoding="UTF-8" standalone="no"?>
<!DOCTYPE svg PUBLIC "-//W3C//DTD SVG 1.1//EN"
 "http://www.w3.org/Graphics/SVG/1.1/DTD/svg11.dtd">
<!-- Generated by graphviz version 2.40.1 (20161225.0304)
 -->
<!-- Title: G Pages: 1 -->
<svg width="219pt" height="80pt"
 viewBox="0.00 0.00 219.29 79.89" xmlns="http://www.w3.org/2000/svg" xmlns:xlink="http://www.w3.org/1999/xlink">
<g id="graph0" class="graph" transform="scale(1 1) rotate(0) translate(4 75.8864)">
<title>G</title>
<polygon fill="#ffffff" stroke="transparent" points="-4,4 -4,-75.8864 215.2872,-75.8864 215.2872,4 -4,4"/>
<!-- Maybe () -->
<g id="node1" class="node">
<title>Maybe ()</title>
<ellipse fill="none" stroke="#000000" cx="44.1961" cy="-20.8864" rx="44.393" ry="18"/>
<text text-anchor="middle" x="44.1961" y="-17.1864" font-family="Times,serif" font-size="14.00" fill="#000000">Maybe ()</text>
</g>
<!-- Maybe ()&#45;&gt;Maybe () -->
<g id="edge1" class="edge">
<title>Maybe ()&#45;&gt;Maybe ()</title>
<path fill="none" stroke="#000000" d="M30.628,-38.2963C28.0952,-47.9743 32.618,-56.8864 44.1961,-56.8864 51.4324,-56.8864 55.9127,-53.4051 57.637,-48.4313"/>
<polygon fill="#000000" stroke="#000000" points="61.1383,-48.3395 57.7642,-38.2963 54.1389,-48.2515 61.1383,-48.3395"/>
<text text-anchor="middle" x="44.1961" y="-60.6864" font-family="Times,serif" font-size="14.00" fill="#000000">id</text>
</g>
<!-- Bool -->
<g id="node2" class="node">
<title>Bool</title>
<ellipse fill="none" stroke="#000000" cx="183.3397" cy="-20.8864" rx="27.8951" ry="18"/>
<text text-anchor="middle" x="183.3397" y="-17.1864" font-family="Times,serif" font-size="14.00" fill="#000000">Bool</text>
</g>
<!-- Maybe ()&#45;&gt;Bool -->
<g id="edge2" class="edge">
<title>Maybe ()&#45;&gt;Bool</title>
<path fill="none" stroke="#000000" d="M88.6045,-20.8864C106.6513,-20.8864 127.3087,-20.8864 144.7184,-20.8864"/>
<polygon fill="#000000" stroke="#000000" points="145.0863,-24.3865 155.0863,-20.8864 145.0863,-17.3865 145.0863,-24.3865"/>
<text text-anchor="middle" x="121.8922" y="-24.6864" font-family="Times,serif" font-size="14.00" fill="#000000">isJust</text>
</g>
<!-- Bool&#45;&gt;Maybe () -->
<g id="edge4" class="edge">
<title>Bool&#45;&gt;Maybe ()</title>
<path fill="none" stroke="#000000" d="M160.9889,-9.5891C153.6599,-6.4486 145.3509,-3.467 137.3922,-1.8864 120.3581,1.4966 101.5906,-1.1069 85.389,-5.349"/>
<polygon fill="#000000" stroke="#000000" points="84.3029,-2.0196 75.6711,-8.1631 86.2501,-8.7433 84.3029,-2.0196"/>
<text text-anchor="middle" x="121.8922" y="-5.6864" font-family="Times,serif" font-size="14.00" fill="#000000">justIf</text>
</g>
<!-- Bool&#45;&gt;Bool -->
<g id="edge3" class="edge">
<title>Bool&#45;&gt;Bool</title>
<path fill="none" stroke="#000000" d="M172.7077,-37.9237C170.5379,-47.7443 174.0819,-56.8864 183.3397,-56.8864 189.1258,-56.8864 192.68,-53.3153 194.0022,-48.2393"/>
<polygon fill="#000000" stroke="#000000" points="197.5014,-47.9133 193.9717,-37.9237 190.5014,-47.934 197.5014,-47.9133"/>
<text text-anchor="middle" x="183.3397" y="-60.6864" font-family="Times,serif" font-size="14.00" fill="#000000">id</text>
</g>
</g>
</svg>
