<?xml version="1.0" encoding="UTF-8" standalone="no"?>
<!DOCTYPE svg PUBLIC "-//W3C//DTD SVG 1.1//EN"
 "http://www.w3.org/Graphics/SVG/1.1/DTD/svg11.dtd">
<!-- Generated by graphviz version 2.40.1 (20161225.0304)
 -->
<!-- Title: G Pages: 1 -->
<svg width="146pt" height="290pt"
 viewBox="0.00 0.00 146.00 290.00" xmlns="http://www.w3.org/2000/svg" xmlns:xlink="http://www.w3.org/1999/xlink">
<g id="graph0" class="graph" transform="scale(1 1) rotate(0) translate(4 286)">
<title>G</title>
<polygon fill="#ffffff" stroke="transparent" points="-4,4 -4,-286 142,-286 142,4 -4,4"/>
<!-- P -->
<g id="node1" class="node">
<title>P</title>
<ellipse fill="none" stroke="#000000" cx="72" cy="-141" rx="27" ry="18"/>
<text text-anchor="middle" x="72" y="-137.3" font-family="Times,serif" font-size="14.00" fill="#000000">P</text>
</g>
<!-- A -->
<g id="node2" class="node">
<title>A</title>
<ellipse fill="none" stroke="#000000" cx="27" cy="-18" rx="27" ry="18"/>
<text text-anchor="middle" x="27" y="-14.3" font-family="Times,serif" font-size="14.00" fill="#000000">A</text>
</g>
<!-- P&#45;&gt;A -->
<g id="edge1" class="edge">
<title>P&#45;&gt;A</title>
<path fill="none" stroke="#000000" d="M65.5526,-123.3771C58.0674,-102.9176 45.6365,-68.9398 36.919,-45.1118"/>
<polygon fill="#000000" stroke="#000000" points="40.1583,-43.7789 33.4354,-35.5902 33.5844,-46.184 40.1583,-43.7789"/>
<text text-anchor="middle" x="54.5" y="-75.8" font-family="Times,serif" font-size="14.00" fill="#000000">f</text>
</g>
<!-- B -->
<g id="node3" class="node">
<title>B</title>
<ellipse fill="none" stroke="#000000" cx="111" cy="-18" rx="27" ry="18"/>
<text text-anchor="middle" x="111" y="-14.3" font-family="Times,serif" font-size="14.00" fill="#000000">B</text>
</g>
<!-- P&#45;&gt;B -->
<g id="edge2" class="edge">
<title>P&#45;&gt;B</title>
<path fill="none" stroke="#000000" d="M77.5877,-123.3771C84.0093,-103.1247 94.6307,-69.6262 102.1732,-45.8384"/>
<polygon fill="#000000" stroke="#000000" points="105.6096,-46.5804 105.2958,-35.9902 98.937,-44.4646 105.6096,-46.5804"/>
<text text-anchor="middle" x="98.5" y="-75.8" font-family="Times,serif" font-size="14.00" fill="#000000"> g</text>
</g>
<!-- P&#39; -->
<g id="node4" class="node">
<title>P&#39;</title>
<ellipse fill="none" stroke="#000000" cx="72" cy="-264" rx="27" ry="18"/>
<text text-anchor="middle" x="72" y="-260.3" font-family="Times,serif" font-size="14.00" fill="#000000">P&#39;</text>
</g>
<!-- P&#39;&#45;&gt;P -->
<g id="edge5" class="edge">
<title>P&#39;&#45;&gt;P</title>
<path fill="none" stroke="#000000" stroke-dasharray="5,2" d="M72,-245.8509C72,-225.6843 72,-192.8643 72,-169.3133"/>
<polygon fill="#000000" stroke="#000000" points="75.5001,-169.2235 72,-159.2235 68.5001,-169.2236 75.5001,-169.2235"/>
<text text-anchor="middle" x="77.5" y="-198.8" font-family="Times,serif" font-size="14.00" fill="#000000"> h</text>
</g>
<!-- P&#39;&#45;&gt;A -->
<g id="edge3" class="edge">
<title>P&#39;&#45;&gt;A</title>
<path fill="none" stroke="#000000" d="M62.5972,-246.8025C52.0707,-226.5115 35.6213,-191.4244 29,-159 21.1386,-120.5024 22.3483,-74.8558 24.345,-46.1557"/>
<polygon fill="#000000" stroke="#000000" points="27.846,-46.2772 25.1315,-36.0361 20.8671,-45.7348 27.846,-46.2772"/>
<text text-anchor="middle" x="32.5" y="-137.3" font-family="Times,serif" font-size="14.00" fill="#000000">f&#39;</text>
</g>
<!-- P&#39;&#45;&gt;B -->
<g id="edge4" class="edge">
<title>P&#39;&#45;&gt;B</title>
<path fill="none" stroke="#000000" d="M79.8301,-246.6081C88.6036,-226.1345 102.3382,-190.8761 108,-159 114.8723,-120.3086 114.3068,-74.7112 112.9283,-46.0748"/>
<polygon fill="#000000" stroke="#000000" points="116.4171,-45.7728 112.374,-35.9798 109.4276,-46.1567 116.4171,-45.7728"/>
<text text-anchor="middle" x="118.5" y="-137.3" font-family="Times,serif" font-size="14.00" fill="#000000"> g&#39;</text>
</g>
</g>
</svg>
