<?xml version="1.0" encoding="UTF-8" standalone="no"?>
<!DOCTYPE svg PUBLIC "-//W3C//DTD SVG 1.1//EN"
 "http://www.w3.org/Graphics/SVG/1.1/DTD/svg11.dtd">
<!-- Generated by graphviz version 2.40.1 (20161225.0304)
 -->
<!-- Title: G Pages: 1 -->
<svg width="254pt" height="121pt"
 viewBox="0.00 0.00 254.00 121.00" xmlns="http://www.w3.org/2000/svg" xmlns:xlink="http://www.w3.org/1999/xlink">
<g id="graph0" class="graph" transform="scale(1 1) rotate(0) translate(4 117)">
<title>G</title>
<polygon fill="#ffffff" stroke="transparent" points="-4,4 -4,-117 250,-117 250,4 -4,4"/>
<!-- A -->
<g id="node1" class="node">
<title>A</title>
<ellipse fill="none" stroke="#000000" cx="219" cy="-62" rx="27" ry="18"/>
<text text-anchor="middle" x="219" y="-58.3" font-family="Times,serif" font-size="14.00" fill="#000000">A</text>
</g>
<!-- A&#45;&gt;A -->
<g id="edge1" class="edge">
<title>A&#45;&gt;A</title>
<path fill="none" stroke="#000000" d="M210.7877,-79.4099C209.2548,-89.0879 211.9922,-98 219,-98 223.3799,-98 226.0916,-94.5187 227.1353,-89.5449"/>
<polygon fill="#000000" stroke="#000000" points="230.6361,-89.4362 227.2123,-79.4099 223.6363,-89.383 230.6361,-89.4362"/>
<text text-anchor="middle" x="219" y="-101.8" font-family="Times,serif" font-size="14.00" fill="#000000">id</text>
</g>
<!-- B -->
<g id="node2" class="node">
<title>B</title>
<ellipse fill="none" stroke="#000000" cx="124" cy="-18" rx="27" ry="18"/>
<text text-anchor="middle" x="124" y="-14.3" font-family="Times,serif" font-size="14.00" fill="#000000">B</text>
</g>
<!-- B&#45;&gt;A -->
<g id="edge2" class="edge">
<title>B&#45;&gt;A</title>
<path fill="none" stroke="#000000" d="M146.5137,-28.4274C158.6997,-34.0714 173.9529,-41.1361 187.3193,-47.3269"/>
<polygon fill="#000000" stroke="#000000" points="186.103,-50.6206 196.6479,-51.6475 189.0449,-44.2688 186.103,-50.6206"/>
<text text-anchor="middle" x="171.5" y="-43.8" font-family="Times,serif" font-size="14.00" fill="#000000">f</text>
</g>
<!-- B&#45;&gt;B -->
<g id="edge3" class="edge">
<title>B&#45;&gt;B</title>
<path fill="none" stroke="#000000" d="M115.7877,-35.4099C114.2548,-45.0879 116.9922,-54 124,-54 128.3799,-54 131.0916,-50.5187 132.1353,-45.5449"/>
<polygon fill="#000000" stroke="#000000" points="135.6361,-45.4362 132.2123,-35.4099 128.6363,-45.383 135.6361,-45.4362"/>
<text text-anchor="middle" x="124" y="-57.8" font-family="Times,serif" font-size="14.00" fill="#000000">id</text>
</g>
<!-- C -->
<g id="node3" class="node">
<title>C</title>
<ellipse fill="none" stroke="#000000" cx="27" cy="-62" rx="27" ry="18"/>
<text text-anchor="middle" x="27" y="-58.3" font-family="Times,serif" font-size="14.00" fill="#000000">C</text>
</g>
<!-- C&#45;&gt;A -->
<g id="edge4" class="edge">
<title>C&#45;&gt;A</title>
<path fill="none" stroke="#000000" d="M52.037,-69.1605C65.2809,-72.5811 81.8871,-76.2948 97,-78 120.8487,-80.6909 127.16,-80.7669 151,-78 161.9553,-76.7285 173.708,-74.3414 184.3091,-71.7917"/>
<polygon fill="#000000" stroke="#000000" points="185.219,-75.1719 194.0567,-69.3284 183.5039,-68.3852 185.219,-75.1719"/>
<text text-anchor="middle" x="124" y="-83.8" font-family="Times,serif" font-size="14.00" fill="#000000">f . g</text>
</g>
<!-- C&#45;&gt;B -->
<g id="edge5" class="edge">
<title>C&#45;&gt;B</title>
<path fill="none" stroke="#000000" d="M49.4976,-51.7949C62.2299,-46.0194 78.3567,-38.7042 92.3476,-32.3578"/>
<polygon fill="#000000" stroke="#000000" points="93.9634,-35.4682 101.6244,-28.1497 91.0717,-29.0933 93.9634,-35.4682"/>
<text text-anchor="middle" x="75.5" y="-45.8" font-family="Times,serif" font-size="14.00" fill="#000000">g</text>
</g>
<!-- C&#45;&gt;C -->
<g id="edge6" class="edge">
<title>C&#45;&gt;C</title>
<path fill="none" stroke="#000000" d="M18.4307,-79.4099C16.8311,-89.0879 19.6875,-98 27,-98 31.5703,-98 34.4,-94.5187 35.489,-89.5449"/>
<polygon fill="#000000" stroke="#000000" points="38.9899,-89.4374 35.5693,-79.4099 31.9901,-89.3818 38.9899,-89.4374"/>
<text text-anchor="middle" x="27" y="-101.8" font-family="Times,serif" font-size="14.00" fill="#000000">id</text>
</g>
</g>
</svg>
