<?xml version="1.0" encoding="UTF-8" standalone="no"?>
<!DOCTYPE svg PUBLIC "-//W3C//DTD SVG 1.1//EN"
 "http://www.w3.org/Graphics/SVG/1.1/DTD/svg11.dtd">
<!-- Generated by graphviz version 2.40.1 (20161225.0304)
 -->
<!-- Title: G Pages: 1 -->
<svg width="254pt" height="112pt"
 viewBox="0.00 0.00 254.00 112.00" xmlns="http://www.w3.org/2000/svg" xmlns:xlink="http://www.w3.org/1999/xlink">
<g id="graph0" class="graph" transform="scale(1 1) rotate(0) translate(4 108)">
<title>G</title>
<polygon fill="#ffffff" stroke="transparent" points="-4,4 -4,-108 250,-108 250,4 -4,4"/>
<!-- A -->
<g id="node1" class="node">
<title>A</title>
<ellipse fill="none" stroke="#000000" cx="27" cy="-18" rx="27" ry="18"/>
<text text-anchor="middle" x="27" y="-14.3" font-family="Times,serif" font-size="14.00" fill="#000000">A</text>
</g>
<!-- A&#45;&gt;A -->
<g id="edge1" class="edge">
<title>A&#45;&gt;A</title>
<path fill="none" stroke="#000000" d="M18.7877,-35.4099C17.2548,-45.0879 19.9922,-54 27,-54 31.3799,-54 34.0916,-50.5187 35.1353,-45.5449"/>
<polygon fill="#000000" stroke="#000000" points="38.6361,-45.4362 35.2123,-35.4099 31.6363,-45.383 38.6361,-45.4362"/>
<text text-anchor="middle" x="27" y="-57.8" font-family="Times,serif" font-size="14.00" fill="#000000">id</text>
</g>
<!-- B -->
<g id="node2" class="node">
<title>B</title>
<ellipse fill="none" stroke="#000000" cx="122" cy="-53" rx="27" ry="18"/>
<text text-anchor="middle" x="122" y="-49.3" font-family="Times,serif" font-size="14.00" fill="#000000">B</text>
</g>
<!-- A&#45;&gt;B -->
<g id="edge2" class="edge">
<title>A&#45;&gt;B</title>
<path fill="none" stroke="#000000" d="M50.9725,-26.832C62.4228,-31.0505 76.3133,-36.168 88.7629,-40.7548"/>
<polygon fill="#000000" stroke="#000000" points="87.7708,-44.1192 98.3642,-44.2921 90.1908,-37.5508 87.7708,-44.1192"/>
<text text-anchor="middle" x="74.5" y="-38.8" font-family="Times,serif" font-size="14.00" fill="#000000">f</text>
</g>
<!-- C -->
<g id="node3" class="node">
<title>C</title>
<ellipse fill="none" stroke="#000000" cx="219" cy="-18" rx="27" ry="18"/>
<text text-anchor="middle" x="219" y="-14.3" font-family="Times,serif" font-size="14.00" fill="#000000">C</text>
</g>
<!-- A&#45;&gt;C -->
<g id="edge5" class="edge">
<title>A&#45;&gt;C</title>
<path fill="none" stroke="#000000" d="M53.7573,-14.6054C66.2633,-13.1834 81.3698,-11.6997 95,-11 118.9684,-9.7696 125.0298,-9.8045 149,-11 159.7039,-11.5339 171.2944,-12.5242 181.9059,-13.5953"/>
<polygon fill="#000000" stroke="#000000" points="181.8086,-17.1046 192.1221,-14.6795 182.5473,-10.1437 181.8086,-17.1046"/>
<text text-anchor="middle" x="122" y="-14.8" font-family="Times,serif" font-size="14.00" fill="#000000">f . g</text>
</g>
<!-- B&#45;&gt;B -->
<g id="edge4" class="edge">
<title>B&#45;&gt;B</title>
<path fill="none" stroke="#000000" d="M113.7877,-70.4099C112.2548,-80.0879 114.9922,-89 122,-89 126.3799,-89 129.0916,-85.5187 130.1353,-80.5449"/>
<polygon fill="#000000" stroke="#000000" points="133.6361,-80.4362 130.2123,-70.4099 126.6363,-80.383 133.6361,-80.4362"/>
<text text-anchor="middle" x="122" y="-92.8" font-family="Times,serif" font-size="14.00" fill="#000000">id</text>
</g>
<!-- B&#45;&gt;C -->
<g id="edge3" class="edge">
<title>B&#45;&gt;C</title>
<path fill="none" stroke="#000000" d="M145.9775,-44.3483C157.8695,-40.0574 172.4307,-34.8033 185.4128,-30.1191"/>
<polygon fill="#000000" stroke="#000000" points="186.7437,-33.3598 194.9621,-26.6735 184.3678,-26.7753 186.7437,-33.3598"/>
<text text-anchor="middle" x="170.5" y="-39.8" font-family="Times,serif" font-size="14.00" fill="#000000">g</text>
</g>
<!-- C&#45;&gt;C -->
<g id="edge6" class="edge">
<title>C&#45;&gt;C</title>
<path fill="none" stroke="#000000" d="M210.4307,-35.4099C208.8311,-45.0879 211.6875,-54 219,-54 223.5703,-54 226.4,-50.5187 227.489,-45.5449"/>
<polygon fill="#000000" stroke="#000000" points="230.9899,-45.4374 227.5693,-35.4099 223.9901,-45.3818 230.9899,-45.4374"/>
<text text-anchor="middle" x="219" y="-57.8" font-family="Times,serif" font-size="14.00" fill="#000000">id</text>
</g>
</g>
</svg>
