<?xml version="1.0" encoding="UTF-8" standalone="no"?>
<!DOCTYPE svg PUBLIC "-//W3C//DTD SVG 1.1//EN"
 "http://www.w3.org/Graphics/SVG/1.1/DTD/svg11.dtd">
<!-- Generated by graphviz version 2.40.1 (20161225.0304)
 -->
<!-- Title: G Pages: 1 -->
<svg width="142pt" height="290pt"
 viewBox="0.00 0.00 142.00 290.00" xmlns="http://www.w3.org/2000/svg" xmlns:xlink="http://www.w3.org/1999/xlink">
<g id="graph0" class="graph" transform="scale(1 1) rotate(0) translate(4 286)">
<title>G</title>
<polygon fill="#ffffff" stroke="transparent" points="-4,4 -4,-286 138,-286 138,4 -4,4"/>
<!-- A -->
<g id="node1" class="node">
<title>A</title>
<ellipse fill="none" stroke="#000000" cx="27" cy="-264" rx="27" ry="18"/>
<text text-anchor="middle" x="27" y="-260.3" font-family="Times,serif" font-size="14.00" fill="#000000">A</text>
</g>
<!-- S -->
<g id="node2" class="node">
<title>S</title>
<ellipse fill="none" stroke="#000000" cx="66" cy="-141" rx="27" ry="18"/>
<text text-anchor="middle" x="66" y="-137.3" font-family="Times,serif" font-size="14.00" fill="#000000">S</text>
</g>
<!-- A&#45;&gt;S -->
<g id="edge1" class="edge">
<title>A&#45;&gt;S</title>
<path fill="none" stroke="#000000" d="M32.5877,-246.3771C39.0093,-226.1247 49.6307,-192.6262 57.1732,-168.8384"/>
<polygon fill="#000000" stroke="#000000" points="60.6096,-169.5804 60.2958,-158.9902 53.937,-167.4646 60.6096,-169.5804"/>
<text text-anchor="middle" x="50.5" y="-198.8" font-family="Times,serif" font-size="14.00" fill="#000000">f</text>
</g>
<!-- S&#39; -->
<g id="node4" class="node">
<title>S&#39;</title>
<ellipse fill="none" stroke="#000000" cx="66" cy="-18" rx="27" ry="18"/>
<text text-anchor="middle" x="66" y="-14.3" font-family="Times,serif" font-size="14.00" fill="#000000">S&#39;</text>
</g>
<!-- A&#45;&gt;S&#39; -->
<g id="edge3" class="edge">
<title>A&#45;&gt;S&#39;</title>
<path fill="none" stroke="#000000" d="M23.967,-245.9832C19.9838,-218.9678 14.4398,-166.4907 23,-123 28.5174,-94.9688 41.5843,-64.9983 51.8759,-44.2826"/>
<polygon fill="#000000" stroke="#000000" points="55.092,-45.6799 56.5157,-35.1812 48.8557,-42.5006 55.092,-45.6799"/>
<text text-anchor="middle" x="26.5" y="-137.3" font-family="Times,serif" font-size="14.00" fill="#000000">f&#39;</text>
</g>
<!-- S&#45;&gt;S&#39; -->
<g id="edge5" class="edge">
<title>S&#45;&gt;S&#39;</title>
<path fill="none" stroke="#000000" stroke-dasharray="5,2" d="M66,-122.8509C66,-102.6843 66,-69.8643 66,-46.3133"/>
<polygon fill="#000000" stroke="#000000" points="69.5001,-46.2235 66,-36.2235 62.5001,-46.2236 69.5001,-46.2235"/>
<text text-anchor="middle" x="71.5" y="-75.8" font-family="Times,serif" font-size="14.00" fill="#000000"> h</text>
</g>
<!-- B -->
<g id="node3" class="node">
<title>B</title>
<ellipse fill="none" stroke="#000000" cx="107" cy="-264" rx="27" ry="18"/>
<text text-anchor="middle" x="107" y="-260.3" font-family="Times,serif" font-size="14.00" fill="#000000">B</text>
</g>
<!-- B&#45;&gt;S -->
<g id="edge2" class="edge">
<title>B&#45;&gt;S</title>
<path fill="none" stroke="#000000" d="M101.1257,-246.3771C94.3059,-225.9176 82.9799,-191.9398 75.0373,-168.1118"/>
<polygon fill="#000000" stroke="#000000" points="78.3461,-166.9702 71.8634,-158.5902 71.7054,-169.1839 78.3461,-166.9702"/>
<text text-anchor="middle" x="93.5" y="-198.8" font-family="Times,serif" font-size="14.00" fill="#000000"> g</text>
</g>
<!-- B&#45;&gt;S&#39; -->
<g id="edge4" class="edge">
<title>B&#45;&gt;S&#39;</title>
<path fill="none" stroke="#000000" d="M108.04,-246.0103C109.2236,-219.0294 110.0625,-166.5959 102,-123 96.9404,-95.6417 86.1376,-65.7457 77.6788,-44.8758"/>
<polygon fill="#000000" stroke="#000000" points="80.8151,-43.3017 73.7501,-35.4064 74.3495,-45.9843 80.8151,-43.3017"/>
<text text-anchor="middle" x="112.5" y="-137.3" font-family="Times,serif" font-size="14.00" fill="#000000"> g&#39;</text>
</g>
</g>
</svg>
